<mxfile host="65bd71144e">
    <diagram id="EIGrPlaxsiUugqEYfEAW" name="Page-1">
        <mxGraphModel dx="627" dy="499" grid="1" gridSize="10" guides="1" tooltips="1" connect="1" arrows="1" fold="1" page="1" pageScale="1" pageWidth="1100" pageHeight="850" math="0" shadow="0">
            <root>
                <mxCell id="0"/>
                <mxCell id="1" parent="0"/>
                <mxCell id="13" value="" style="edgeStyle=none;html=1;fontColor=#212121;" edge="1" parent="1" source="2" target="12">
                    <mxGeometry relative="1" as="geometry"/>
                </mxCell>
                <mxCell id="2" value="&lt;font color=&quot;#212121&quot;&gt;main.js&lt;/font&gt;" style="whiteSpace=wrap;html=1;fillColor=#FFFFCC;" vertex="1" parent="1">
                    <mxGeometry x="80" y="40" width="120" height="60" as="geometry"/>
                </mxCell>
                <mxCell id="15" value="" style="edgeStyle=none;html=1;fontColor=#212121;" edge="1" parent="1" source="7" target="14">
                    <mxGeometry relative="1" as="geometry"/>
                </mxCell>
                <mxCell id="7" value="&lt;font color=&quot;#212121&quot;&gt;Walkers.js&lt;/font&gt;" style="whiteSpace=wrap;html=1;fillColor=#FFFFCC;" vertex="1" parent="1">
                    <mxGeometry x="240" y="40" width="120" height="60" as="geometry"/>
                </mxCell>
                <mxCell id="17" value="" style="edgeStyle=none;html=1;fontColor=#212121;" edge="1" parent="1" source="8" target="16">
                    <mxGeometry relative="1" as="geometry"/>
                </mxCell>
                <mxCell id="8" value="&lt;font color=&quot;#212121&quot;&gt;CityList.js&lt;/font&gt;" style="whiteSpace=wrap;html=1;fillColor=#FFFFCC;" vertex="1" parent="1">
                    <mxGeometry x="400" y="40" width="120" height="60" as="geometry"/>
                </mxCell>
                <mxCell id="19" value="" style="edgeStyle=none;html=1;fontColor=#212121;" edge="1" parent="1" source="9" target="18">
                    <mxGeometry relative="1" as="geometry"/>
                </mxCell>
                <mxCell id="9" value="&lt;font color=&quot;#212121&quot;&gt;RegisteredPets.js&lt;/font&gt;" style="whiteSpace=wrap;html=1;fillColor=#FFFFCC;" vertex="1" parent="1">
                    <mxGeometry x="560" y="40" width="120" height="60" as="geometry"/>
                </mxCell>
                <mxCell id="21" value="" style="edgeStyle=none;html=1;fontColor=#212121;" edge="1" parent="1" source="10" target="20">
                    <mxGeometry relative="1" as="geometry"/>
                </mxCell>
                <mxCell id="10" value="&lt;font color=&quot;#212121&quot;&gt;Assignments.js&lt;/font&gt;" style="whiteSpace=wrap;html=1;fillColor=#FFFFCC;" vertex="1" parent="1">
                    <mxGeometry x="720" y="40" width="120" height="60" as="geometry"/>
                </mxCell>
                <mxCell id="23" value="" style="edgeStyle=none;html=1;fontColor=#212121;" edge="1" parent="1" source="11" target="22">
                    <mxGeometry relative="1" as="geometry"/>
                </mxCell>
                <mxCell id="11" value="&lt;font color=&quot;#212121&quot;&gt;database.js&lt;/font&gt;" style="whiteSpace=wrap;html=1;fillColor=#FFFFCC;" vertex="1" parent="1">
                    <mxGeometry x="880" y="40" width="120" height="60" as="geometry"/>
                </mxCell>
                <mxCell id="12" value="&lt;font color=&quot;#212121&quot;&gt;main.js&lt;/font&gt;" style="whiteSpace=wrap;html=1;fillColor=#FFFFCC;" vertex="1" parent="1">
                    <mxGeometry x="80" y="780" width="120" height="60" as="geometry"/>
                </mxCell>
                <mxCell id="14" value="&lt;font color=&quot;#212121&quot;&gt;Walkers.js&lt;/font&gt;" style="whiteSpace=wrap;html=1;fillColor=#FFFFCC;" vertex="1" parent="1">
                    <mxGeometry x="240" y="780" width="120" height="60" as="geometry"/>
                </mxCell>
                <mxCell id="16" value="&lt;font color=&quot;#212121&quot;&gt;CityList.js&lt;/font&gt;" style="whiteSpace=wrap;html=1;fillColor=#FFFFCC;" vertex="1" parent="1">
                    <mxGeometry x="400" y="780" width="120" height="60" as="geometry"/>
                </mxCell>
                <mxCell id="18" value="&lt;font color=&quot;#212121&quot;&gt;RegisteredPets.js&lt;/font&gt;" style="whiteSpace=wrap;html=1;fillColor=#FFFFCC;" vertex="1" parent="1">
                    <mxGeometry x="560" y="780" width="120" height="60" as="geometry"/>
                </mxCell>
                <mxCell id="20" value="&lt;font color=&quot;#212121&quot;&gt;Assignments.js&lt;/font&gt;" style="whiteSpace=wrap;html=1;fillColor=#FFFFCC;" vertex="1" parent="1">
                    <mxGeometry x="720" y="780" width="120" height="60" as="geometry"/>
                </mxCell>
                <mxCell id="22" value="&lt;font color=&quot;#212121&quot;&gt;database.js&lt;/font&gt;" style="whiteSpace=wrap;html=1;fillColor=#FFFFCC;" vertex="1" parent="1">
                    <mxGeometry x="880" y="780" width="120" height="60" as="geometry"/>
                </mxCell>
                <mxCell id="24" value="" style="endArrow=classic;html=1;fontColor=#212121;" edge="1" parent="1">
                    <mxGeometry width="50" height="50" relative="1" as="geometry">
                        <mxPoint x="140" y="160" as="sourcePoint"/>
                        <mxPoint x="300" y="160" as="targetPoint"/>
                    </mxGeometry>
                </mxCell>
                <mxCell id="25" value="" style="html=1;labelBackgroundColor=#ffffff;startArrow=none;startFill=0;startSize=6;endArrow=classic;endFill=1;endSize=6;jettySize=auto;orthogonalLoop=1;strokeWidth=1;dashed=1;fontSize=14;fontColor=#212121;" edge="1" parent="1">
                    <mxGeometry width="60" height="60" relative="1" as="geometry">
                        <mxPoint x="300" y="182" as="sourcePoint"/>
                        <mxPoint x="140" y="182" as="targetPoint"/>
                    </mxGeometry>
                </mxCell>
                <mxCell id="26" value="&lt;span style=&quot;background-color: rgb(255, 255, 204);&quot;&gt;Import Walkers reference&lt;/span&gt;" style="text;strokeColor=none;align=center;fillColor=none;html=1;verticalAlign=middle;whiteSpace=wrap;rounded=0;fontColor=#212121;" vertex="1" parent="1">
                    <mxGeometry x="170" y="124" width="90" height="30" as="geometry"/>
                </mxCell>
                <mxCell id="27" value="&lt;span style=&quot;background-color: rgb(255, 255, 204);&quot;&gt;Import &amp;amp; run getWalkers&lt;/span&gt;" style="text;strokeColor=none;align=center;fillColor=none;html=1;verticalAlign=middle;whiteSpace=wrap;rounded=0;fontColor=#212121;" vertex="1" parent="1">
                    <mxGeometry x="319" y="129" width="120" height="30" as="geometry"/>
                </mxCell>
                <mxCell id="28" value="" style="endArrow=classic;html=1;fontColor=#212121;" edge="1" parent="1">
                    <mxGeometry width="50" height="50" relative="1" as="geometry">
                        <mxPoint x="300" y="165.0000000000001" as="sourcePoint"/>
                        <mxPoint x="940" y="165" as="targetPoint"/>
                    </mxGeometry>
                </mxCell>
                <mxCell id="29" value="" style="html=1;labelBackgroundColor=#ffffff;startArrow=none;startFill=0;startSize=6;endArrow=classic;endFill=1;endSize=6;jettySize=auto;orthogonalLoop=1;strokeWidth=1;dashed=1;fontSize=14;fontColor=#212121;" edge="1" parent="1">
                    <mxGeometry width="60" height="60" relative="1" as="geometry">
                        <mxPoint x="940" y="174" as="sourcePoint"/>
                        <mxPoint x="300" y="174" as="targetPoint"/>
                    </mxGeometry>
                </mxCell>
                <mxCell id="30" value="&lt;span style=&quot;background-color: rgb(255, 255, 204);&quot;&gt;Import CityList reference&lt;/span&gt;" style="text;strokeColor=none;align=center;fillColor=none;html=1;verticalAlign=middle;whiteSpace=wrap;rounded=0;fontColor=#212121;" vertex="1" parent="1">
                    <mxGeometry x="170" y="188" width="90" height="30" as="geometry"/>
                </mxCell>
                <mxCell id="31" value="" style="endArrow=classic;html=1;fontColor=#212121;" edge="1" parent="1">
                    <mxGeometry width="50" height="50" relative="1" as="geometry">
                        <mxPoint x="141" y="221.0000000000001" as="sourcePoint"/>
                        <mxPoint x="460" y="221" as="targetPoint"/>
                    </mxGeometry>
                </mxCell>
                <mxCell id="32" value="" style="html=1;labelBackgroundColor=#ffffff;startArrow=none;startFill=0;startSize=6;endArrow=classic;endFill=1;endSize=6;jettySize=auto;orthogonalLoop=1;strokeWidth=1;dashed=1;fontSize=14;fontColor=#212121;" edge="1" parent="1">
                    <mxGeometry width="60" height="60" relative="1" as="geometry">
                        <mxPoint x="460" y="260" as="sourcePoint"/>
                        <mxPoint x="140" y="260" as="targetPoint"/>
                    </mxGeometry>
                </mxCell>
                <mxCell id="33" value="&lt;span style=&quot;background-color: rgb(255, 255, 204);&quot;&gt;Import &amp;amp; run getWalkers&lt;/span&gt;" style="text;strokeColor=none;align=center;fillColor=none;html=1;verticalAlign=middle;whiteSpace=wrap;rounded=0;fontColor=#212121;" vertex="1" parent="1">
                    <mxGeometry x="490" y="200" width="90" height="30" as="geometry"/>
                </mxCell>
                <mxCell id="34" value="" style="endArrow=classic;html=1;fontColor=#212121;" edge="1" parent="1">
                    <mxGeometry width="50" height="50" relative="1" as="geometry">
                        <mxPoint x="460" y="240.0000000000001" as="sourcePoint"/>
                        <mxPoint x="940" y="240" as="targetPoint"/>
                    </mxGeometry>
                </mxCell>
                <mxCell id="35" value="" style="html=1;labelBackgroundColor=#ffffff;startArrow=none;startFill=0;startSize=6;endArrow=classic;endFill=1;endSize=6;jettySize=auto;orthogonalLoop=1;strokeWidth=1;dashed=1;fontSize=14;fontColor=#212121;" edge="1" parent="1">
                    <mxGeometry width="60" height="60" relative="1" as="geometry">
                        <mxPoint x="940" y="249.9999999999999" as="sourcePoint"/>
                        <mxPoint x="460" y="250" as="targetPoint"/>
                    </mxGeometry>
                </mxCell>
                <mxCell id="36" value="&lt;span style=&quot;background-color: rgb(255, 255, 204);&quot;&gt;Import Assignments reference&lt;/span&gt;" style="text;strokeColor=none;align=center;fillColor=none;html=1;verticalAlign=middle;whiteSpace=wrap;rounded=0;fontColor=#212121;" vertex="1" parent="1">
                    <mxGeometry x="155" y="267" width="120" height="30" as="geometry"/>
                </mxCell>
                <mxCell id="37" value="" style="endArrow=classic;html=1;fontColor=#212121;" edge="1" parent="1">
                    <mxGeometry width="50" height="50" relative="1" as="geometry">
                        <mxPoint x="140.4999999999999" y="302" as="sourcePoint"/>
                        <mxPoint x="780" y="302" as="targetPoint"/>
                    </mxGeometry>
                </mxCell>
                <mxCell id="38" value="&lt;span style=&quot;background-color: rgb(255, 255, 204);&quot;&gt;Import &amp;amp; run getWalkers &amp;amp; getPets&lt;/span&gt;" style="text;strokeColor=none;align=center;fillColor=none;html=1;verticalAlign=middle;whiteSpace=wrap;rounded=0;fontColor=#212121;" vertex="1" parent="1">
                    <mxGeometry x="790" y="278" width="140" height="30" as="geometry"/>
                </mxCell>
                <mxCell id="39" value="" style="endArrow=classic;html=1;fontColor=#212121;" edge="1" parent="1">
                    <mxGeometry width="50" height="50" relative="1" as="geometry">
                        <mxPoint x="780" y="311.0000000000001" as="sourcePoint"/>
                        <mxPoint x="940" y="311.0000000000001" as="targetPoint"/>
                    </mxGeometry>
                </mxCell>
                <mxCell id="40" value="" style="html=1;labelBackgroundColor=#ffffff;startArrow=none;startFill=0;startSize=6;endArrow=classic;endFill=1;endSize=6;jettySize=auto;orthogonalLoop=1;strokeWidth=1;dashed=1;fontSize=14;fontColor=#212121;" edge="1" parent="1">
                    <mxGeometry width="60" height="60" relative="1" as="geometry">
                        <mxPoint x="940" y="319" as="sourcePoint"/>
                        <mxPoint x="780" y="319" as="targetPoint"/>
                    </mxGeometry>
                </mxCell>
                <mxCell id="41" value="" style="html=1;labelBackgroundColor=#ffffff;startArrow=none;startFill=0;startSize=6;endArrow=classic;endFill=1;endSize=6;jettySize=auto;orthogonalLoop=1;strokeWidth=1;dashed=1;fontSize=14;fontColor=#212121;" edge="1" parent="1">
                    <mxGeometry width="60" height="60" relative="1" as="geometry">
                        <mxPoint x="780" y="325.9999999999999" as="sourcePoint"/>
                        <mxPoint x="140" y="326" as="targetPoint"/>
                    </mxGeometry>
                </mxCell>
                <mxCell id="42" value="&lt;span style=&quot;background-color: rgb(255, 255, 204);&quot;&gt;Import RegisteredPets reference&lt;/span&gt;" style="text;strokeColor=none;align=center;fillColor=none;html=1;verticalAlign=middle;whiteSpace=wrap;rounded=0;fontColor=#212121;" vertex="1" parent="1">
                    <mxGeometry x="155" y="331" width="125" height="30" as="geometry"/>
                </mxCell>
                <mxCell id="43" value="" style="endArrow=classic;html=1;fontColor=#212121;" edge="1" parent="1">
                    <mxGeometry width="50" height="50" relative="1" as="geometry">
                        <mxPoint x="140.2499999999999" y="366" as="sourcePoint"/>
                        <mxPoint x="620" y="366" as="targetPoint"/>
                    </mxGeometry>
                </mxCell>
                <mxCell id="44" value="&lt;span style=&quot;background-color: rgb(255, 255, 204);&quot;&gt;Import &amp;amp; run getPets&lt;/span&gt;" style="text;strokeColor=none;align=center;fillColor=none;html=1;verticalAlign=middle;whiteSpace=wrap;rounded=0;fontColor=#212121;" vertex="1" parent="1">
                    <mxGeometry x="630" y="340" width="140" height="30" as="geometry"/>
                </mxCell>
                <mxCell id="45" value="" style="endArrow=classic;html=1;fontColor=#212121;" edge="1" parent="1">
                    <mxGeometry width="50" height="50" relative="1" as="geometry">
                        <mxPoint x="620" y="373.0000000000001" as="sourcePoint"/>
                        <mxPoint x="940" y="373" as="targetPoint"/>
                    </mxGeometry>
                </mxCell>
                <mxCell id="46" value="" style="html=1;labelBackgroundColor=#ffffff;startArrow=none;startFill=0;startSize=6;endArrow=classic;endFill=1;endSize=6;jettySize=auto;orthogonalLoop=1;strokeWidth=1;dashed=1;fontSize=14;fontColor=#212121;" edge="1" parent="1">
                    <mxGeometry width="60" height="60" relative="1" as="geometry">
                        <mxPoint x="941" y="379.9999999999999" as="sourcePoint"/>
                        <mxPoint x="620" y="380" as="targetPoint"/>
                    </mxGeometry>
                </mxCell>
                <mxCell id="47" value="" style="html=1;labelBackgroundColor=#ffffff;startArrow=none;startFill=0;startSize=6;endArrow=classic;endFill=1;endSize=6;jettySize=auto;orthogonalLoop=1;strokeWidth=1;dashed=1;fontSize=14;fontColor=#212121;" edge="1" parent="1">
                    <mxGeometry width="60" height="60" relative="1" as="geometry">
                        <mxPoint x="619" y="387.9999999999999" as="sourcePoint"/>
                        <mxPoint x="139" y="388.0000000000001" as="targetPoint"/>
                    </mxGeometry>
                </mxCell>
                <mxCell id="48" value="&lt;span style=&quot;background-color: rgb(255, 255, 204);&quot;&gt;Invoke CityList function&lt;/span&gt;" style="text;strokeColor=none;align=center;fillColor=none;html=1;verticalAlign=middle;whiteSpace=wrap;rounded=0;fontColor=#212121;" vertex="1" parent="1">
                    <mxGeometry x="170" y="394" width="90" height="30" as="geometry"/>
                </mxCell>
                <mxCell id="49" value="" style="endArrow=classic;html=1;fontColor=#212121;" edge="1" parent="1">
                    <mxGeometry width="50" height="50" relative="1" as="geometry">
                        <mxPoint x="140.4999999999999" y="427" as="sourcePoint"/>
                        <mxPoint x="459.5" y="427" as="targetPoint"/>
                    </mxGeometry>
                </mxCell>
                <mxCell id="51" value="&lt;b&gt;Loop:&lt;/b&gt;&amp;nbsp;Build HTML list of cities" style="shape=delay;whiteSpace=wrap;html=1;labelBackgroundColor=#FFFFCC;fontColor=#212121;fillColor=#FFFFCC;" vertex="1" parent="1">
                    <mxGeometry x="460" y="430" width="120" height="50" as="geometry"/>
                </mxCell>
                <mxCell id="52" value="" style="html=1;labelBackgroundColor=#ffffff;startArrow=none;startFill=0;startSize=6;endArrow=classic;endFill=1;endSize=6;jettySize=auto;orthogonalLoop=1;strokeWidth=1;dashed=1;fontSize=14;fontColor=#212121;" edge="1" parent="1">
                    <mxGeometry width="60" height="60" relative="1" as="geometry">
                        <mxPoint x="457.5" y="484.9999999999999" as="sourcePoint"/>
                        <mxPoint x="140" y="485" as="targetPoint"/>
                    </mxGeometry>
                </mxCell>
                <mxCell id="53" value="&lt;span style=&quot;background-color: rgb(255, 255, 204);&quot;&gt;Invoke Walkers function&lt;/span&gt;" style="text;strokeColor=none;align=center;fillColor=none;html=1;verticalAlign=middle;whiteSpace=wrap;rounded=0;fontColor=#212121;" vertex="1" parent="1">
                    <mxGeometry x="170" y="490" width="90" height="30" as="geometry"/>
                </mxCell>
                <mxCell id="54" value="" style="endArrow=classic;html=1;fontColor=#212121;" edge="1" parent="1">
                    <mxGeometry width="50" height="50" relative="1" as="geometry">
                        <mxPoint x="140.4999999999999" y="523" as="sourcePoint"/>
                        <mxPoint x="300" y="523" as="targetPoint"/>
                    </mxGeometry>
                </mxCell>
                <mxCell id="55" value="&lt;b&gt;Loop:&lt;/b&gt;&amp;nbsp;Build HTML list of walker's names" style="shape=delay;whiteSpace=wrap;html=1;labelBackgroundColor=#FFFFCC;fontColor=#212121;fillColor=#FFFFCC;" vertex="1" parent="1">
                    <mxGeometry x="300" y="527" width="130" height="50" as="geometry"/>
                </mxCell>
                <mxCell id="56" value="" style="html=1;labelBackgroundColor=#ffffff;startArrow=none;startFill=0;startSize=6;endArrow=classic;endFill=1;endSize=6;jettySize=auto;orthogonalLoop=1;strokeWidth=1;dashed=1;fontSize=14;fontColor=#212121;" edge="1" parent="1">
                    <mxGeometry width="60" height="60" relative="1" as="geometry">
                        <mxPoint x="300" y="580" as="sourcePoint"/>
                        <mxPoint x="141.2499999999999" y="580" as="targetPoint"/>
                    </mxGeometry>
                </mxCell>
                <mxCell id="57" value="&lt;span style=&quot;background-color: rgb(255, 255, 204);&quot;&gt;Invoke Assignments function&lt;/span&gt;" style="text;strokeColor=none;align=center;fillColor=none;html=1;verticalAlign=middle;whiteSpace=wrap;rounded=0;fontColor=#212121;" vertex="1" parent="1">
                    <mxGeometry x="158.75" y="584" width="117.5" height="30" as="geometry"/>
                </mxCell>
                <mxCell id="58" value="" style="endArrow=classic;html=1;fontColor=#212121;" edge="1" parent="1">
                    <mxGeometry width="50" height="50" relative="1" as="geometry">
                        <mxPoint x="139.12999999999988" y="620" as="sourcePoint"/>
                        <mxPoint x="780" y="620" as="targetPoint"/>
                    </mxGeometry>
                </mxCell>
                <mxCell id="59" value="" style="html=1;labelBackgroundColor=#ffffff;startArrow=none;startFill=0;startSize=6;endArrow=classic;endFill=1;endSize=6;jettySize=auto;orthogonalLoop=1;strokeWidth=1;dashed=1;fontSize=14;fontColor=#212121;" edge="1" parent="1">
                    <mxGeometry width="60" height="60" relative="1" as="geometry">
                        <mxPoint x="780" y="730.9999999999999" as="sourcePoint"/>
                        <mxPoint x="140" y="731" as="targetPoint"/>
                    </mxGeometry>
                </mxCell>
                <mxCell id="60" value="&lt;b&gt;Loop:&lt;/b&gt;&amp;nbsp;Find current walker assigned to pet" style="shape=delay;whiteSpace=wrap;html=1;labelBackgroundColor=#FFFFCC;fontColor=#212121;fillColor=#FFFFCC;" vertex="1" parent="1">
                    <mxGeometry x="780" y="620" width="150" height="50" as="geometry"/>
                </mxCell>
                <mxCell id="62" value="&lt;b style=&quot;background-color: rgb(255, 255, 204);&quot;&gt;Loop:&lt;/b&gt;&lt;span style=&quot;background-color: rgb(255, 255, 204);&quot;&gt;&amp;nbsp;Build HTML list&lt;/span&gt;&lt;br style=&quot;background-color: rgb(255, 255, 204);&quot;&gt;&lt;span style=&quot;background-color: rgb(255, 255, 204);&quot;&gt;of each pet, its assigned walker, and their city&lt;/span&gt;" style="shape=delay;whiteSpace=wrap;html=1;labelBackgroundColor=none;fontSize=10;fontColor=#212121;fillColor=#FFFFCC;" vertex="1" parent="1">
                    <mxGeometry x="780" y="671" width="140" height="60" as="geometry"/>
                </mxCell>
                <mxCell id="65" value="&amp;nbsp; &amp;nbsp;Dynamically update HTML to the DOM" style="shape=display;whiteSpace=wrap;html=1;labelBackgroundColor=none;fontSize=10;fontColor=#212121;fillColor=#FFFFCC;size=0.11666666666666742;rotation=0;" vertex="1" parent="1">
                    <mxGeometry x="142.5" y="736" width="150" height="40" as="geometry"/>
                </mxCell>
            </root>
        </mxGraphModel>
    </diagram>
</mxfile>